<svg width="54" height="54" fill="none" xmlns="http://www.w3.org/2000/svg"><path d="M27 0l23.383 13.5v27L27 54 3.617 40.5v-27L27 0z" fill="#E7A9CE"/><path d="M20.848 16.932c0 .072.024.3.024.888v1.08c0 .612-.024.828-.024.912 0 .12.012.132.132.132.072 0 .372-.024 1.248-.024h1.752v3.42c0 .348-.096.444-.48.444-.228 0-.516-.012-.864-.06.108.216.204.504.264.816.072.36.072.36.444.36.936 0 1.296-.096 1.512-.288.252-.228.336-.48.336-1.008 0-.54-.048-1.404-.048-2.184v-3.204c0-.828.024-1.212.024-1.284 0-.132-.012-.144-.132-.144-.072 0-.372.024-1.26.024h-.504l.732-.192c.144-.036.18-.06.12-.168a6.372 6.372 0 00-.384-.636h.408c1.14 0 1.536.024 1.596.024.12 0 .132-.012.132-.132v-.72c0-.12-.012-.132-.132-.132-.06 0-.456.024-1.596.024h-1.8l.036-.096c.072-.192.096-.276.168-.324.096-.06.144-.108.144-.204 0-.084-.06-.12-.192-.156-.3-.072-.648-.156-1.032-.216-.048.228-.12.48-.192.648-.288.708-.6 1.212-1.176 1.836.216.072.432.216.648.396.036.036.06.072.096.096v.072zm1.38-.12c-.492 0-.804 0-.996-.012l.048-.06c.264-.312.468-.612.636-.924h.672c.168.276.3.54.444.888.012.048.024.096.048.108h-.852zm1.752.768v.432h-2.016v-.432h2.016zm-2.016 1.584v-.432h2.016v.432h-2.016zM15.868 23.1c0 1.128-.024 1.644-.024 1.716 0 .12.012.132.132.132h.948c.132 0 .144-.012.144-.132 0-.072-.024-.588-.024-1.716v-3.18h1.74c.744 0 1.044.024 1.116.024.132 0 .144-.012.144-.132 0-.072-.024-.36-.024-.996v-.912c0-.624.024-.9.024-.972 0-.132-.012-.144-.144-.144-.072 0-.372.024-1.116.024H17.32c-.468 0-.804 0-1.02-.012.288-.312.54-.636.768-.984h.6c.144.276.252.552.348.864.036.132.06.144.24.108l.78-.18c.168-.036.18-.06.12-.18-.12-.216-.216-.408-.348-.612h.048c1.02 0 1.368.024 1.44.024.12 0 .132-.012.132-.132v-.72c0-.12-.012-.132-.132-.132-.072 0-.42.024-1.44.024h-1.26l.072-.168c.072-.18.108-.24.18-.288.084-.06.144-.108.144-.204 0-.096-.048-.132-.18-.168-.36-.072-.684-.132-1.116-.192-.048.24-.12.408-.228.636-.372.78-.912 1.428-1.584 2.016.18.096.432.264.684.492.144.132.216.204.288.204 0 .264.012.744.012 1.476V23.1zm3.06-5.52v.432h-1.884v-.432h1.884zm0 1.584h-1.884v-.432h1.884v.432zm.42 5.352c.12 0 .132-.012.132-.132v-.42h2.016v.288c0 .12.012.132.132.132h.816c.12 0 .132-.012.132-.132 0-.072-.024-.36-.024-1.824v-.888c0-.612.024-.924.024-.996 0-.12-.012-.132-.132-.132-.072 0-.348.024-1.224.024h-1.476c-.876 0-1.14-.024-1.224-.024-.12 0-.132.012-.132.132 0 .072.024.384.024 1.176v.792c0 1.512-.024 1.788-.024 1.872 0 .12.012.132.132.132h.828zm.132-1.356v-.6h2.016v.6H19.48zm0-1.908h2.016v.576H19.48v-.576zm12.348 1.8v.264c0 .984-.024 1.428-.024 1.5 0 .12.012.132.12.132h1.02c.12 0 .132-.012.132-.132 0-.06-.024-.516-.024-1.5v-.264h3.192c1.068 0 1.428.024 1.5.024.12 0 .12-.012.12-.132v-.9c0-.12 0-.132-.12-.132-.072 0-.432.024-1.5.024h-3.192v-.816h1.668c1.176 0 1.596.024 1.668.024.12 0 .132-.012.132-.132 0-.072-.024-.408-.024-1.188v-2.112c0-.78.024-1.116.024-1.188 0-.108-.012-.12-.132-.12-.072 0-.492.024-1.668.024h-4.428c-1.176 0-1.596-.024-1.68-.024-.12 0-.132.012-.132.12 0 .084.024.408.024 1.188v2.112c0 .78-.024 1.116-.024 1.188 0 .12.012.132.132.132.084 0 .504-.024 1.68-.024h1.536v.816H28.78c-1.068 0-1.428-.024-1.5-.024-.12 0-.12.012-.12.132v.9c0 .12 0 .132.12.132.072 0 .432-.024 1.5-.024h3.048zm3.456-2.928h-2.232v-.9h2.232v.9zm0-2.712v.864h-2.232v-.864h2.232zm-5.568 2.712v-.9h2.112v.9h-2.112zm0-1.848v-.864h2.112v.864h-2.112zm4.644-2.328c.228.048.6.168.828.252a.895.895 0 00.288.072c.096 0 .156-.048.24-.156.24-.324.492-.696.696-1.02.06-.096.156-.216.24-.276.048-.048.132-.12.132-.204 0-.072-.06-.132-.144-.18a12.58 12.58 0 00-1.14-.42c-.084.3-.192.516-.312.732-.24.42-.492.804-.828 1.2zm-6.144-1.488c-.144.06-.168.096-.084.192.336.444.672.972.9 1.476.06.12.096.12.252.06l.876-.372c.132-.06.144-.084.096-.18a9.667 9.667 0 00-.936-1.452c-.084-.096-.12-.096-.252-.048l-.852.324zm3.228-.228c-.156.048-.18.084-.108.192.288.456.564 1.032.744 1.608.048.132.06.144.24.072l.84-.324c.144-.06.156-.072.108-.192a6.328 6.328 0 00-.78-1.56c-.072-.108-.096-.108-.252-.06l-.792.264zM19.113 31.136c.12-.864.636-1.26 1.271-1.26.768 0 1.26.444 1.26 1.284 0 .924-.48 1.44-1.68 1.44h-.636v1.224h.697c1.284 0 1.776.612 1.776 1.656 0 .972-.54 1.548-1.404 1.548-.792 0-1.224-.372-1.428-1.296l-1.477.432c.409 1.416 1.404 2.028 2.916 2.028 1.752 0 2.928-1.104 2.928-2.724 0-1.212-.695-2.04-1.931-2.304v-.084c1.104-.192 1.752-.984 1.752-2.064 0-1.332-1.08-2.304-2.748-2.304-1.392 0-2.424.684-2.772 1.98l1.476.444zm11.57-2.616c-.131.06-.155.072-.107.204a12.639 12.639 0 002.58 3.804c-.12.012-.517.024-1.56.024h-3.229c-.924 0-1.344-.012-1.512-.024.864-.864 1.596-1.884 2.197-3.18.084-.18.155-.288.276-.384.06-.06.096-.108.096-.18 0-.084-.037-.144-.168-.204a8.42 8.42 0 00-1.248-.42c-.06.3-.133.528-.24.768-.684 1.5-1.849 2.916-3.469 3.96.204.132.48.432.672.732.12.18.169.264.253.264.06 0 .131-.06.264-.156.407-.312.791-.636 1.163-.996v.876c0 .12.012.132.133.132.072 0 .456-.024 1.584-.024h.144c-.229 2.112-1.285 3.384-3.468 4.176.227.168.456.432.611.72.12.204.156.288.252.288.073 0 .157-.036.288-.096 2.22-.984 3.42-2.688 3.648-5.088h2.137c-.024 1.356-.108 2.28-.229 2.976-.096.552-.3.744-.803.744-.42 0-.768-.024-1.369-.108.168.228.288.552.372.96.084.396.072.396.444.42.288.024.517.024.817.024 1.176 0 1.631-.528 1.787-1.476.18-1.116.264-2.076.3-3.36.013-.42.013-.84.037-1.188.348.348.732.672 1.14.972.12.096.191.156.252.156.072 0 .12-.084.227-.264.205-.348.48-.708.697-.9-1.633-.936-3.108-2.592-3.889-4.428-.048-.12-.072-.132-.228-.06l-.852.336z" fill="#fff"/></svg>