<svg width="40" height="40" fill="none" xmlns="http://www.w3.org/2000/svg"><path d="M20 0C8.955 0 0 8.955 0 20s8.955 20 20 20 20-8.955 20-20S31.045 0 20 0zm10.11 16.075c.305 6.733-4.717 14.24-13.607 14.24-2.703 0-5.218-.793-7.336-2.152a9.63 9.63 0 007.086-1.981 4.798 4.798 0 01-4.473-3.325 4.802 4.802 0 002.163-.082c-2.301-.463-3.891-2.537-3.84-4.755a4.776 4.776 0 002.169.598 4.794 4.794 0 01-1.482-6.391 13.588 13.588 0 009.867 5.001c-.699-2.993 1.573-5.878 4.665-5.878 1.375 0 2.62.582 3.493 1.512a9.55 9.55 0 003.04-1.162 4.807 4.807 0 01-2.105 2.648 9.546 9.546 0 002.748-.755 9.608 9.608 0 01-2.388 2.482z" fill="#fff"/></svg>