<svg width="54" height="54" viewBox="0 0 54 54" fill="none" xmlns="http://www.w3.org/2000/svg">
<path d="M27 0L50.3827 13.5V40.5L27 54L3.61731 40.5V13.5L27 0Z" fill="#E7A9CE"/>
<path d="M20.848 16.932C20.848 17.004 20.872 17.232 20.872 17.82V18.9C20.872 19.512 20.848 19.728 20.848 19.812C20.848 19.932 20.86 19.944 20.98 19.944C21.052 19.944 21.352 19.92 22.228 19.92H23.98V23.34C23.98 23.688 23.884 23.784 23.5 23.784C23.272 23.784 22.984 23.772 22.636 23.724C22.744 23.94 22.84 24.228 22.9 24.54C22.972 24.9 22.972 24.9 23.344 24.9C24.28 24.9 24.64 24.804 24.856 24.612C25.108 24.384 25.192 24.132 25.192 23.604C25.192 23.064 25.144 22.2 25.144 21.42V18.216C25.144 17.388 25.168 17.004 25.168 16.932C25.168 16.8 25.156 16.788 25.036 16.788C24.964 16.788 24.664 16.812 23.776 16.812H23.272L24.004 16.62C24.148 16.584 24.184 16.56 24.124 16.452C23.992 16.212 23.884 16.02 23.74 15.816H24.148C25.288 15.816 25.684 15.84 25.744 15.84C25.864 15.84 25.876 15.828 25.876 15.708V14.988C25.876 14.868 25.864 14.856 25.744 14.856C25.684 14.856 25.288 14.88 24.148 14.88H22.348L22.384 14.784C22.456 14.592 22.48 14.508 22.552 14.46C22.648 14.4 22.696 14.352 22.696 14.256C22.696 14.172 22.636 14.136 22.504 14.1C22.204 14.028 21.856 13.944 21.472 13.884C21.424 14.112 21.352 14.364 21.28 14.532C20.992 15.24 20.68 15.744 20.104 16.368C20.32 16.44 20.536 16.584 20.752 16.764C20.788 16.8 20.812 16.836 20.848 16.86V16.932ZM22.228 16.812C21.736 16.812 21.424 16.812 21.232 16.8L21.28 16.74C21.544 16.428 21.748 16.128 21.916 15.816H22.588C22.756 16.092 22.888 16.356 23.032 16.704C23.044 16.752 23.056 16.8 23.08 16.812H22.228ZM23.98 17.58V18.012H21.964V17.58H23.98ZM21.964 19.164V18.732H23.98V19.164H21.964ZM15.868 23.1C15.868 24.228 15.844 24.744 15.844 24.816C15.844 24.936 15.856 24.948 15.976 24.948H16.924C17.056 24.948 17.068 24.936 17.068 24.816C17.068 24.744 17.044 24.228 17.044 23.1V19.92H18.784C19.528 19.92 19.828 19.944 19.9 19.944C20.032 19.944 20.044 19.932 20.044 19.812C20.044 19.74 20.02 19.452 20.02 18.816V17.904C20.02 17.28 20.044 17.004 20.044 16.932C20.044 16.8 20.032 16.788 19.9 16.788C19.828 16.788 19.528 16.812 18.784 16.812H17.32C16.852 16.812 16.516 16.812 16.3 16.8C16.588 16.488 16.84 16.164 17.068 15.816H17.668C17.812 16.092 17.92 16.368 18.016 16.68C18.052 16.812 18.076 16.824 18.256 16.788L19.036 16.608C19.204 16.572 19.216 16.548 19.156 16.428C19.036 16.212 18.94 16.02 18.808 15.816H18.856C19.876 15.816 20.224 15.84 20.296 15.84C20.416 15.84 20.428 15.828 20.428 15.708V14.988C20.428 14.868 20.416 14.856 20.296 14.856C20.224 14.856 19.876 14.88 18.856 14.88H17.596L17.668 14.712C17.74 14.532 17.776 14.472 17.848 14.424C17.932 14.364 17.992 14.316 17.992 14.22C17.992 14.124 17.944 14.088 17.812 14.052C17.452 13.98 17.128 13.92 16.696 13.86C16.648 14.1 16.576 14.268 16.468 14.496C16.096 15.276 15.556 15.924 14.884 16.512C15.064 16.608 15.316 16.776 15.568 17.004C15.712 17.136 15.784 17.208 15.856 17.208C15.856 17.472 15.868 17.952 15.868 18.684V23.1ZM18.928 17.58V18.012H17.044V17.58H18.928ZM18.928 19.164H17.044V18.732H18.928V19.164ZM19.348 24.516C19.468 24.516 19.48 24.504 19.48 24.384V23.964H21.496V24.252C21.496 24.372 21.508 24.384 21.628 24.384H22.444C22.564 24.384 22.576 24.372 22.576 24.252C22.576 24.18 22.552 23.892 22.552 22.428V21.54C22.552 20.928 22.576 20.616 22.576 20.544C22.576 20.424 22.564 20.412 22.444 20.412C22.372 20.412 22.096 20.436 21.22 20.436H19.744C18.868 20.436 18.604 20.412 18.52 20.412C18.4 20.412 18.388 20.424 18.388 20.544C18.388 20.616 18.412 20.928 18.412 21.72V22.512C18.412 24.024 18.388 24.3 18.388 24.384C18.388 24.504 18.4 24.516 18.52 24.516H19.348ZM19.48 23.16V22.56H21.496V23.16H19.48ZM19.48 21.252H21.496V21.828H19.48V21.252ZM31.828 23.052V23.316C31.828 24.3 31.804 24.744 31.804 24.816C31.804 24.936 31.816 24.948 31.924 24.948H32.944C33.064 24.948 33.076 24.936 33.076 24.816C33.076 24.756 33.052 24.3 33.052 23.316V23.052H36.244C37.312 23.052 37.672 23.076 37.744 23.076C37.864 23.076 37.864 23.064 37.864 22.944V22.044C37.864 21.924 37.864 21.912 37.744 21.912C37.672 21.912 37.312 21.936 36.244 21.936H33.052V21.12H34.72C35.896 21.12 36.316 21.144 36.388 21.144C36.508 21.144 36.52 21.132 36.52 21.012C36.52 20.94 36.496 20.604 36.496 19.824V17.712C36.496 16.932 36.52 16.596 36.52 16.524C36.52 16.416 36.508 16.404 36.388 16.404C36.316 16.404 35.896 16.428 34.72 16.428H30.292C29.116 16.428 28.696 16.404 28.612 16.404C28.492 16.404 28.48 16.416 28.48 16.524C28.48 16.608 28.504 16.932 28.504 17.712V19.824C28.504 20.604 28.48 20.94 28.48 21.012C28.48 21.132 28.492 21.144 28.612 21.144C28.696 21.144 29.116 21.12 30.292 21.12H31.828V21.936H28.78C27.712 21.936 27.352 21.912 27.28 21.912C27.16 21.912 27.16 21.924 27.16 22.044V22.944C27.16 23.064 27.16 23.076 27.28 23.076C27.352 23.076 27.712 23.052 28.78 23.052H31.828ZM35.284 20.124H33.052V19.224H35.284V20.124ZM35.284 17.412V18.276H33.052V17.412H35.284ZM29.716 20.124V19.224H31.828V20.124H29.716ZM29.716 18.276V17.412H31.828V18.276H29.716ZM34.36 15.948C34.588 15.996 34.96 16.116 35.188 16.2C35.32 16.248 35.404 16.272 35.476 16.272C35.572 16.272 35.632 16.224 35.716 16.116C35.956 15.792 36.208 15.42 36.412 15.096C36.472 15 36.568 14.88 36.652 14.82C36.7 14.772 36.784 14.7 36.784 14.616C36.784 14.544 36.724 14.484 36.64 14.436C36.304 14.292 35.884 14.136 35.5 14.016C35.416 14.316 35.308 14.532 35.188 14.748C34.948 15.168 34.696 15.552 34.36 15.948ZM28.216 14.46C28.072 14.52 28.048 14.556 28.132 14.652C28.468 15.096 28.804 15.624 29.032 16.128C29.092 16.248 29.128 16.248 29.284 16.188L30.16 15.816C30.292 15.756 30.304 15.732 30.256 15.636C29.98 15.12 29.68 14.64 29.32 14.184C29.236 14.088 29.2 14.088 29.068 14.136L28.216 14.46ZM31.444 14.232C31.288 14.28 31.264 14.316 31.336 14.424C31.624 14.88 31.9 15.456 32.08 16.032C32.128 16.164 32.14 16.176 32.32 16.104L33.16 15.78C33.304 15.72 33.316 15.708 33.268 15.588C33.088 15.036 32.812 14.508 32.488 14.028C32.416 13.92 32.392 13.92 32.236 13.968L31.444 14.232ZM19.1125 31.136C19.2325 30.272 19.7485 29.876 20.3845 29.876C21.1525 29.876 21.6445 30.32 21.6445 31.16C21.6445 32.084 21.1645 32.6 19.9645 32.6H19.3285V33.824H20.0245C21.3085 33.824 21.8005 34.436 21.8005 35.48C21.8005 36.452 21.2605 37.028 20.3965 37.028C19.6045 37.028 19.1725 36.656 18.9685 35.732L17.4925 36.164C17.9005 37.58 18.8965 38.192 20.4085 38.192C22.1605 38.192 23.3365 37.088 23.3365 35.468C23.3365 34.256 22.6405 33.428 21.4045 33.164V33.08C22.5085 32.888 23.1565 32.096 23.1565 31.016C23.1565 29.684 22.0765 28.712 20.4085 28.712C19.0165 28.712 17.9845 29.396 17.6365 30.692L19.1125 31.136ZM30.6835 28.52C30.5515 28.58 30.5275 28.592 30.5755 28.724C31.1755 30.092 32.0395 31.4 33.1555 32.528C33.0355 32.54 32.6395 32.552 31.5955 32.552H28.3675C27.4435 32.552 27.0235 32.54 26.8555 32.528C27.7195 31.664 28.4515 30.644 29.0515 29.348C29.1355 29.168 29.2075 29.06 29.3275 28.964C29.3875 28.904 29.4235 28.856 29.4235 28.784C29.4235 28.7 29.3875 28.64 29.2555 28.58C28.9315 28.436 28.4395 28.268 28.0075 28.16C27.9475 28.46 27.8755 28.688 27.7675 28.928C27.0835 30.428 25.9195 31.844 24.2995 32.888C24.5035 33.02 24.7795 33.32 24.9715 33.62C25.0915 33.8 25.1395 33.884 25.2235 33.884C25.2835 33.884 25.3555 33.824 25.4875 33.728C25.8955 33.416 26.2795 33.092 26.6515 32.732V33.608C26.6515 33.728 26.6635 33.74 26.7835 33.74C26.8555 33.74 27.2395 33.716 28.3675 33.716H28.5115C28.2835 35.828 27.2275 37.1 25.0435 37.892C25.2715 38.06 25.4995 38.324 25.6555 38.612C25.7755 38.816 25.8115 38.9 25.9075 38.9C25.9795 38.9 26.0635 38.864 26.1955 38.804C28.4155 37.82 29.6155 36.116 29.8435 33.716H31.9795C31.9555 35.072 31.8715 35.996 31.7515 36.692C31.6555 37.244 31.4515 37.436 30.9475 37.436C30.5275 37.436 30.1795 37.412 29.5795 37.328C29.7475 37.556 29.8675 37.88 29.9515 38.288C30.0355 38.684 30.0235 38.684 30.3955 38.708C30.6835 38.732 30.9115 38.732 31.2115 38.732C32.3875 38.732 32.8435 38.204 32.9995 37.256C33.1795 36.14 33.2635 35.18 33.2995 33.896C33.3115 33.476 33.3115 33.056 33.3355 32.708C33.6835 33.056 34.0675 33.38 34.4755 33.68C34.5955 33.776 34.6675 33.836 34.7275 33.836C34.7995 33.836 34.8475 33.752 34.9555 33.572C35.1595 33.224 35.4355 32.864 35.6515 32.672C34.0195 31.736 32.5435 30.08 31.7635 28.244C31.7155 28.124 31.6915 28.112 31.5355 28.184L30.6835 28.52Z" fill="white"/>
</svg>
